<svg width="163" height="162" viewBox="0 0 163 162" fill="none" xmlns="http://www.w3.org/2000/svg">
<ellipse cx="76.5" cy="146" rx="76.5" ry="16" fill="#DDEDEC"/>
<path d="M81.2806 136.668C80.2506 136.672 79.2332 136.441 78.3061 135.992C64.199 129.023 48.9443 124.671 33.2832 123.148C24.7429 122.269 16.1349 122.269 7.59451 123.148C6.65163 123.243 5.69935 123.138 4.79947 122.841C3.89959 122.544 3.07221 122.061 2.37101 121.424C1.66982 120.786 1.11048 120.009 0.729282 119.141C0.348086 118.273 0.153552 117.335 0.158303 116.388V8.22461C0.149876 6.5429 0.76858 4.91842 1.8936 3.6684C3.01862 2.41838 4.56917 1.63257 6.24248 1.46442C15.6863 0.585429 25.1914 0.585429 34.6353 1.46442C50.7826 3.11823 66.5444 7.4356 81.2806 14.2412C96.0168 7.4356 111.779 3.11823 127.926 1.46442C137.37 0.585429 146.875 0.585429 156.319 1.46442C157.992 1.63257 159.543 2.41838 160.668 3.6684C161.793 4.91842 162.411 6.5429 162.403 8.22461V116.388C162.408 117.335 162.213 118.273 161.832 119.141C161.451 120.009 160.891 120.786 160.19 121.424C159.489 122.061 158.662 122.544 157.762 122.841C156.862 123.138 155.91 123.243 154.967 123.148C146.426 122.269 137.818 122.269 129.278 123.148C113.617 124.671 98.3622 129.023 84.2551 135.992C83.328 136.441 82.3107 136.672 81.2806 136.668ZM20.4389 108.951C25.171 108.951 29.9031 108.951 34.6353 109.627C50.7826 111.281 66.5444 115.599 81.2806 122.404C96.0168 115.599 111.779 111.281 127.926 109.627C134.891 108.963 141.895 108.805 148.883 109.154V14.5116C142.345 14.1615 135.791 14.3197 129.278 14.9848C113.617 16.5077 98.3622 20.8596 84.2551 27.8292C83.3292 28.2829 82.3117 28.5187 81.2806 28.5187C80.2495 28.5187 79.2321 28.2829 78.3061 27.8292C64.199 20.8596 48.9443 16.5077 33.2832 14.9848C26.7705 14.3197 20.2159 14.1615 13.6787 14.5116V109.154C15.9096 109.019 18.208 108.951 20.4389 108.951Z" fill="#289795"/>
<path d="M81.2809 96.1073C79.4879 96.1073 77.7685 95.3951 76.5007 94.1273C75.2329 92.8595 74.5207 91.14 74.5207 89.3471V21.7452C74.5207 19.9523 75.2329 18.2328 76.5007 16.965C77.7685 15.6972 79.4879 14.985 81.2809 14.985C83.0738 14.985 84.7933 15.6972 86.061 16.965C87.3288 18.2328 88.0411 19.9523 88.0411 21.7452V89.3471C88.0411 91.14 87.3288 92.8595 86.061 94.1273C84.7933 95.3951 83.0738 96.1073 81.2809 96.1073Z" fill="#289795"/>
</svg>
